# xmcd CD database file
# Copyright (C) 1993-1998 Ti Kan
#
# Track frame offsets:
#	150
#	16538
#	30838
#	44650
#	53725
#	66350
#	84988
#	97550
#	126100
#	145150
#	164518
#	178113
#	198405
#	210400
#	233913
#	253625
#	266183
#	283728
#
# Disc length: 4078 seconds
#
# Revision: 1
# Processed by: cddbd v1.4b41PL1 Copyright (c) Steve Scherf et al.
# Submitted via: NotifyCDPlayer(CDDB) 1.51.3
#
DISCID=f40fec12
DTITLE=Tadeusz Nalepa - Bluesbreakout 1971 - 1972
DYEAR=1900
DGENRE=
TTITLE0=Ona poszla inna droga
TTITLE1=Kiedy bylem malym chlopcem
TTITLE2=Oni zaraz przyjda tu
TTITLE3=Przyszla do mnie bieda
TTITLE4=Pomaluj moje sny
TTITLE5=Usta me ogrzej
TTITLE6=Gdybym byl wichrem
TTITLE7=Co stalo sie kwiatom
TTITLE8=Dzisiejszej nocy
TTITLE9=Daje ci prog
TTITLE10=Takie moje miasto jest
TTITLE11=Noca puka ktos
TTITLE12=Powiedzmy to
TTITLE13=Rzeka dziecinstwa
TTITLE14=Jest gdzies taki dom
TTITLE15=Sliska dzisiaj droga
TTITLE16=Zaprowadzic ciebie musze tam
TTITLE17=Karate
EXTD=
EXTT0=
EXTT1=
EXTT2=
EXTT3=
EXTT4=
EXTT5=
EXTT6=
EXTT7=
EXTT8=
EXTT9=
EXTT10=
EXTT11=
EXTT12=
EXTT13=
EXTT14=
EXTT15=
EXTT16=
EXTT17=
PLAYORDER=
